<svg width="139" height="36" viewBox="0 0 139 36" fill="none" xmlns="http://www.w3.org/2000/svg">
<path d="M0 0V27.8055H4.76438V0H0Z" fill="#213F7D"/>
<path d="M28.2137 19.7304C28.9619 11.6552 24.9062 7.59779 18.4093 7.59779C12.1094 7.59779 8.0931 11.8939 8.0931 17.8608C8.0931 24.1459 12.07 28.3227 18.7637 28.3227C21.7169 28.3227 25.0637 27.2884 27.1112 25.1403L24.04 22.0773C22.9375 23.2309 20.6144 23.9072 18.8425 23.9072C15.4562 23.9072 13.3694 22.1569 13.0544 19.7304H28.2137ZM13.1331 15.7127C13.8419 13.1669 15.9681 11.8939 18.5669 11.8939C21.3231 11.8939 23.2919 13.1669 23.6069 15.7127H13.1331Z" fill="#213F7D"/>
<path d="M51.0122 27.8055V17.5028C51.0122 11.337 47.3503 7.87624 42.7828 7.87624C40.3415 7.87624 38.3728 8.87072 36.404 10.8199L36.089 8.1547H31.7972V27.8055H36.5615V17.7812C36.5615 14.7978 38.5697 12.2917 41.5228 12.2917C44.594 12.2917 46.2084 14.5591 46.2084 17.5425V27.8055H51.0122Z" fill="#213F7D"/>
<path d="M64.551 12.2519C67.5829 12.2519 70.1816 14.5591 70.1816 17.9801C70.1816 21.5204 67.5829 23.7481 64.551 23.7481C61.4798 23.7481 59.0385 21.4011 59.0385 17.9801C59.0385 14.4398 61.4798 12.2519 64.551 12.2519ZM70.4966 0V10.8597C69.3548 8.83094 66.1654 7.71713 64.1179 7.71713C58.4479 7.71713 54.2348 11.2177 54.2348 17.9801C54.2348 24.4243 58.5266 28.2431 64.236 28.2431C66.5985 28.2431 69.0004 27.4475 70.4966 25.1006L70.8116 27.8055H75.3004V0H70.4966Z" fill="#213F7D"/>
<path d="M94.8368 10.2232C92.5925 8.23425 90.3087 7.63757 87.2768 7.63757C83.7331 7.63757 79.0868 9.22873 79.0868 13.7635C79.0868 18.2188 83.4575 19.5713 87.1193 19.8497C89.8756 20.0088 90.9781 20.5657 90.9781 21.9182C90.9781 23.3503 89.285 24.305 87.4737 24.2652C85.3081 24.2254 82.1581 23.0718 80.78 21.5204L78.4175 24.9812C81.2525 27.9646 84.3237 28.4818 87.395 28.4818C92.9468 28.4818 95.7425 25.4983 95.7425 22.0376C95.7425 16.8265 91.0962 15.9912 87.4343 15.7525C84.9537 15.5934 83.8118 14.8773 83.8118 13.6044C83.8118 12.3713 85.0718 11.6552 87.3556 11.6552C89.2062 11.6552 90.7812 12.0928 92.1593 13.4055L94.8368 10.2232Z" fill="#213F7D"/>
<path d="M108.193 23.5889C104.925 23.5889 102.681 21.0829 102.681 18.0199C102.681 14.9569 104.728 12.4508 108.193 12.4508C111.658 12.4508 113.706 14.9569 113.706 18.0199C113.706 21.0829 111.461 23.5889 108.193 23.5889ZM118.943 36V8.19448H114.454L114.139 10.8994C112.643 8.7116 110.044 7.75691 107.839 7.75691C101.854 7.75691 97.877 12.2519 97.877 18.0199C97.877 23.7481 101.46 28.2829 107.681 28.2829C109.729 28.2829 112.761 27.6464 114.139 25.4983V36H118.943Z" fill="#213F7D"/>
<path d="M123.162 8.19448V27.8055H127.966V17.463C127.966 13.8431 130.289 12.4906 132.809 12.4906C134.384 12.4906 135.29 12.9282 136.274 13.7635L138.44 9.54696C137.377 8.47293 135.447 7.67735 133.439 7.67735C131.47 7.67735 129.462 8.03536 127.966 10.4619L127.612 8.19448H123.162Z" fill="#213F7D"/>
</svg>
